<svg height="479pt" viewBox="-15 0 479 479.766" width="479pt" xmlns="http://www.w3.org/2000/svg"><path d="m246.527344 130.636719c-1.519532-1.820313-3.773438-2.871094-6.144532-2.871094h-48c-2.371093 0-4.621093 1.050781-6.144531 2.871094l-40 48c-1.199219 1.441406-1.855469 3.253906-1.855469 5.128906v224c0 4.417969 3.582032 8 8 8h8v16h-8c-4.417968 0-8 3.582031-8 8v32c0 4.417969 3.582032 8 8 8h128c4.417969 0 8-3.582031 8-8v-32c0-4.417969-3.582031-8-8-8h-8v-16h8c4.417969 0 8-3.582031 8-8v-224c0-1.875-.65625-3.6875-1.855468-5.128906zm-86.144532 56.023437 35.746094-42.894531h40.511719l35.742187 42.894531v21.105469h-112zm112 277.105469h-112v-16h112zm-16-32h-80v-16h80zm16-32h-112v-176h112zm0 0"/><path d="m447.832031 197.015625c-.074219-.175781-.242187-.730469-.289062-.800781l-23.160157-46.335938v-48.28125c.007813-20.992187-5.890624-41.566406-17.023437-59.367187l-24.191406-38.703125c-1.558594-2.210938-4.097657-3.527344-6.800781-3.527344-2.707032 0-5.242188 1.316406-6.800782 3.527344l-24.160156 38.703125c-11.128906 17.800781-17.03125 38.375-17.023438 59.367187v48.28125l-23.199218 46.3125c-.046875.09375-.214844.648438-.289063.796875-.246093.910157-.417969 1.839844-.511719 2.777344v208c0 4.417969 3.582032 8 8 8h8v16h-8c-4.417968 0-8 3.582031-8 8v32c0 4.417969 3.582032 8 8 8h128c4.417969 0 8-3.582031 8-8v-32c0-4.417969-3.582031-8-8-8h-8v-16h8c4.417969 0 8-3.582031 8-8v-208c-.109374-.929687-.292968-1.851563-.550781-2.75zm-103.449219-69.25h64v16h-64zm0-26.167969c-.003906-17.996094 5.050782-35.628906 14.59375-50.886718l17.40625-27.847657 17.40625 27.847657c9.542969 15.257812 14.597657 32.890624 14.59375 50.886718v10.167969h-64zm-3.054687 58.167969h70.109375l16 32h-102.109375zm91.054687 304h-112v-16h112zm-16-32h-80v-16h80zm16-32h-112v-192h112zm0 0"/><path d="m64.382812 167.765625c-35.328124.039063-63.960937 28.671875-64 64v176c0 4.417969 3.582032 8 8 8h8v16h-8c-4.417968 0-8 3.582031-8 8v32c0 4.417969 3.582032 8 8 8h112c4.417969 0 8-3.582031 8-8v-32c0-4.417969-3.582031-8-8-8h-8v-16h8c4.417969 0 8-3.582031 8-8v-176c-.039062-35.328125-28.671874-63.960937-64-64zm48 296h-96v-16h96zm-16-32h-64v-16h64zm16-32h-96v-128h96zm0-144h-96v-24c0-26.507813 21.492188-48 48-48 26.511719 0 48 21.492187 48 48zm0 0"/><path d="m64.382812 199.765625c-17.671874 0-32 14.328125-32 32h16c0-8.835937 7.164063-16 16-16 8.835938 0 16 7.164063 16 16h16c0-17.671875-14.328124-32-32-32zm0 0"/><path d="m80.382812 287.765625h16v64h-16zm0 0"/><path d="m80.382812 367.765625h16v16h-16zm0 0"/><path d="m240.382812 239.765625h16v112h-16zm0 0"/><path d="m240.382812 367.765625h16v16h-16zm0 0"/><path d="m400.382812 223.765625h16v128h-16zm0 0"/><path d="m400.382812 367.765625h16v16h-16zm0 0"/></svg>