<?xml version="1.0"?>
<svg xmlns="http://www.w3.org/2000/svg" height="512px" viewBox="0 -86 512 512" width="512px" class=""><g><path d="m296 140c5.519531 0 10-4.480469 10-10s-4.480469-10-10-10-10 4.480469-10 10 4.480469 10 10 10zm0 0" data-original="#000000" class="active-path" data-old_color="#4a4a4a" fill="#4a4a4a"/><path d="m296 200c5.519531 0 10-4.480469 10-10s-4.480469-10-10-10-10 4.480469-10 10 4.480469 10 10 10zm0 0" data-original="#000000" class="active-path" data-old_color="#4a4a4a" fill="#4a4a4a"/><path d="m502 0h-86c-5.523438 0-10 4.476562-10 10 0 16.542969-13.457031 30-30 30s-30-13.457031-30-30c0-5.523438-4.476562-10-10-10h-160c-5.523438 0-10 4.476562-10 10 0 16.542969-13.457031 30-30 30s-30-13.457031-30-30c0-5.523438-4.476562-10-10-10h-86c-5.523438 0-10 4.476562-10 10v320c0 5.523438 4.476562 10 10 10h492c5.523438 0 10-4.476562 10-10v-320c0-5.523438-4.476562-10-10-10zm-10 320h-472v-300h67.003906c4.644532 22.792969 24.851563 40 48.996094 40s44.347656-17.207031 48.996094-40h142.007812c4.648438 22.792969 24.851563 40 48.996094 40s44.351562-17.207031 48.996094-40h67.003906zm0 0" data-original="#000000" class="active-path" data-old_color="#4a4a4a" fill="#4a4a4a"/><path d="m179.316406 187.242188c10.230469-9.164063 16.683594-22.460938 16.683594-37.242188 0-27.570312-22.429688-50-50-50s-50 22.429688-50 50c0 14.800781 6.46875 28.113281 16.722656 37.277344-27.539062 12.652344-46.722656 40.480468-46.722656 72.722656v10c0 5.523438 4.476562 10 10 10h140c5.523438 0 10-4.476562 10-10v-10c0-32.808594-19.558594-60.320312-46.683594-72.757812zm-63.316406-37.242188c0-16.542969 13.457031-30 30-30s30 13.457031 30 30-13.457031 30-30 30-30-13.457031-30-30zm-30 110c0-33.085938 26.914062-60 60-60 33.097656 0 60 26.777344 60 60zm0 0" data-original="#000000" class="active-path" data-old_color="#4a4a4a" fill="#4a4a4a"/><path d="m442 180h-106c-5.523438 0-10 4.476562-10 10s4.476562 10 10 10h106c5.523438 0 10-4.476562 10-10s-4.476562-10-10-10zm0 0" data-original="#000000" class="active-path" data-old_color="#4a4a4a" fill="#4a4a4a"/><path d="m326 130c0 5.523438 4.476562 10 10 10h106c5.523438 0 10-4.476562 10-10s-4.476562-10-10-10h-106c-5.523438 0-10 4.476562-10 10zm0 0" data-original="#000000" class="active-path" data-old_color="#4a4a4a" fill="#4a4a4a"/><path d="m442 240h-146c-5.523438 0-10 4.476562-10 10s4.476562 10 10 10h146c5.523438 0 10-4.476562 10-10s-4.476562-10-10-10zm0 0" data-original="#000000" class="active-path" data-old_color="#4a4a4a" fill="#4a4a4a"/></g> </svg>
