<?xml version="1.0"?>
<svg xmlns="http://www.w3.org/2000/svg" height="512px" viewBox="-38 0 512 512.001" width="512px" class=""><g><path d="m23.222656 331.863281h33.519532c.652343 0 1.183593.53125 1.183593 1.183594v28.757813c0 47.214843 38.414063 85.628906 85.628907 85.628906 12.621093 0 22.886718 10.265625 22.886718 22.882812v24.960938c0 9.21875 7.5 16.722656 16.722656 16.722656h48.761719c4.144531 0 7.5-3.355469 7.5-7.5 0-4.140625-3.355469-7.5-7.5-7.5h-48.761719c-.949218 0-1.722656-.773438-1.722656-1.722656v-24.960938c0-20.890625-16.996094-37.882812-37.886718-37.882812-38.945313 0-70.628907-31.683594-70.628907-70.628906v-28.757813c0-8.921875-7.257812-16.183594-16.183593-16.183594h-33.519532c-7.273437 0-10.921875-8.796875-5.773437-13.945312l23.304687-23.304688c20.746094-20.746093 32.171875-48.328125 32.171875-77.667969v-25.164062c0-89.207031 72.574219-161.78125 161.78125-161.78125 37.277344 0 72.910157 12.667969 101.628907 35.902344-13.152344 6.042968-24.667969 16.246094-32.25 29.316406-1.558594 1.683594-2.949219 1.601562-4.433594-.007812-37.074219-63.597657-133.867188-36.316407-133.785156 36.171874.050781 50.15625 28.742187 92.480469 67.085937 124.484376 21.902344 18.28125 48.246094 33.980468 65.9375 41.714843 2.136719.929688 4.199219.9375 6.160156.085938 2.40625-1.039063 53.234375-23.382813 91.441407-66.433594v34.339844c0 39.4375-14.359376 77.425781-40.433594 106.972656-17.3125 19.617187-26.847656 45.75-26.847656 73.582031v64.011719c0 1.023437-.835938 1.859375-1.859376 1.859375h-60.425781c-4.144531 0-7.5 3.355469-7.5 7.5 0 4.140625 3.355469 7.5 7.5 7.5h60.425781c9.296876 0 16.859376-7.566406 16.859376-16.859375v-64.011719c0-24.175781 8.203124-46.78125 23.09375-63.65625 28.496093-32.289062 44.1875-73.804687 44.1875-116.898437v-53.597657c13.003906-18.988281 21.375-38.980468 24.71875-59.402343.667968-4.089844-2.101563-7.945313-6.191407-8.617188-4.089843-.671875-7.941406 2.105469-8.609375 6.191407-9.566406 58.433593-65.6875 106.738281-119.347656 132.378906-60.902344-28.871094-121.125-83.398438-121.195312-151.164063-.03125-31.386719 25.355468-56.824219 56.769531-56.824219 20.367187 0 39.28125 11.019532 49.367187 28.765626 1.3125 2.308593 6.769532 8.160156 14.867188 8.160156 7.824218 0 13.371094-5.507813 14.886718-8.191406 25.464844-45.03125 92.828126-35.308594 104.664063 14.808593.953125 4.035157 4.996094 6.527344 9.023437 5.578125 4.03125-.953125 6.527344-4.992187 5.574219-9.023437-8.898437-37.691407-45.492187-60.929688-82.8125-54.03125-32.558593-29.4375-74.480469-45.605469-118.5-45.605469-97.476562 0-176.78125 79.304688-176.78125 176.78125v25.160156c0 25.335938-9.867187 49.152344-27.777343 67.0625l-23.308594 23.308594c-14.605469 14.601562-4.273438 39.550781 16.382812 39.550781zm0 0" data-original="#000000" class="active-path" data-old_color="#4a4a4a" fill="#4a4a4a"/></g> </svg>
