<?xml version="1.0"?>
<svg xmlns="http://www.w3.org/2000/svg" xmlns:xlink="http://www.w3.org/1999/xlink" version="1.1" id="Capa_1" x="0px" y="0px" width="512px" height="512px" viewBox="0 0 612 612" style="enable-background:new 0 0 612 612;" xml:space="preserve" class=""><g><g>
	<g>
		<g id="Fast_Forward">
			<g>
				<path d="M597.363,280.347L238,68c-18.785,0-34,15.215-34,34v66.453L34,68C15.215,68,0,83.215,0,102v408      c0,18.785,15.215,34,34,34l170-100.453V510c0,18.785,15.215,34,34,34l359.363-212.347C606.441,326.281,612,316.54,612,306      S606.441,285.719,597.363,280.347z M204,364.565L68,444.924V167.076l136,80.359V364.565z M272,444.924V167.076L507.11,306      L272,444.924z" data-original="#000000" class="active-path" data-old_color="#000000" fill="#20BF6B"/>
			</g>
		</g>
	</g>
</g></g> </svg>
