<?xml version="1.0"?>
<svg xmlns="http://www.w3.org/2000/svg" xmlns:xlink="http://www.w3.org/1999/xlink" version="1.1" id="Capa_1" x="0px" y="0px" viewBox="0 0 480 480" style="enable-background:new 0 0 480 480;" xml:space="preserve" width="512px" height="512px" class=""><g><g>
	<g>
		<path d="M413.656,34.344l-32-32C380.156,0.844,378.122,0,376,0H72c-4.418,0-8,3.582-8,8v432c0,2.122,0.844,4.156,2.344,5.656    l32,32c1.5,1.5,3.534,2.344,5.656,2.344h304c4.418,0,8-3.582,8-8V40C416,37.878,415.156,35.844,413.656,34.344z M312,27.312    L388.688,104H312V27.312z M400,464H107.312L80,436.688V16h216v96c0,4.418,3.582,8,8,8h96V464z M400,92.688L323.312,16h49.376    L400,43.312V92.688z" data-original="#000000" class="active-path" data-old_color="#000000" fill="#20BF6B"/>
	</g>
</g><g>
	<g>
		<path d="M344,136H136c-4.418,0-8,3.582-8,8s3.582,8,8,8h208c4.418,0,8-3.582,8-8S348.418,136,344,136z" data-original="#000000" class="active-path" data-old_color="#000000" fill="#20BF6B"/>
	</g>
</g><g>
	<g>
		<path d="M344,184H136c-4.418,0-8,3.582-8,8s3.582,8,8,8h208c4.418,0,8-3.582,8-8S348.418,184,344,184z" data-original="#000000" class="active-path" data-old_color="#000000" fill="#20BF6B"/>
	</g>
</g><g>
	<g>
		<path d="M344,232H136c-4.418,0-8,3.582-8,8s3.582,8,8,8h208c4.418,0,8-3.582,8-8S348.418,232,344,232z" data-original="#000000" class="active-path" data-old_color="#000000" fill="#20BF6B"/>
	</g>
</g><g>
	<g>
		<path d="M344,280H136c-4.418,0-8,3.582-8,8s3.582,8,8,8h208c4.418,0,8-3.582,8-8S348.418,280,344,280z" data-original="#000000" class="active-path" data-old_color="#000000" fill="#20BF6B"/>
	</g>
</g><g>
	<g>
		<path d="M344,328H136c-4.418,0-8,3.582-8,8s3.582,8,8,8h208c4.418,0,8-3.582,8-8S348.418,328,344,328z" data-original="#000000" class="active-path" data-old_color="#000000" fill="#20BF6B"/>
	</g>
</g><g>
	<g>
		<path d="M344,376H136c-4.418,0-8,3.582-8,8s3.582,8,8,8h208c4.418,0,8-3.582,8-8S348.418,376,344,376z" data-original="#000000" class="active-path" data-old_color="#000000" fill="#20BF6B"/>
	</g>
</g><g>
	<g>
		<path d="M240,56c-17.673,0-32,14.327-32,32s14.327,32,32,32c17.673,0,32-14.327,32-32S257.673,56,240,56z M240,104    c-8.837,0-16-7.163-16-16s7.163-16,16-16s16,7.163,16,16S248.837,104,240,104z" data-original="#000000" class="active-path" data-old_color="#000000" fill="#20BF6B"/>
	</g>
</g></g> </svg>
