<?xml version="1.0"?>
<svg xmlns="http://www.w3.org/2000/svg" xmlns:xlink="http://www.w3.org/1999/xlink" version="1.1" id="Layer_1" x="0px" y="0px" viewBox="0 0 509.287 509.287" style="enable-background:new 0 0 509.287 509.287;" xml:space="preserve" width="512px" height="512px" class=""><g><circle style="fill:#FF9933" cx="254.644" cy="254.644" r="254.644" data-original="#6EB1E1" class="active-path" data-old_color="#6EB1E1"/><rect x="219.041" y="386.543" style="fill:#DEDEDF;" width="71.544" height="81.038" data-original="#DEDEDF" class=""/><path style="fill:#646B79;" d="M254.644,16.275L254.644,16.275c-50.861,0-92.228,41.367-92.228,92.228v146.14  c0,50.861,41.367,92.228,92.228,92.228l0,0c50.861,0,92.228-41.367,92.228-92.228v-146.14  C346.872,57.642,305.505,16.275,254.644,16.275z" data-original="#646B79" class=""/><g>
	<path style="fill:#F1F3F7;" d="M254.644,398.411c-77.309,0-140.376-63.068-140.376-140.376v-94.601   c0-6.442,5.425-11.868,11.868-11.868c6.442,0,11.868,5.425,11.868,11.868v94.601c0,64.424,52.217,116.641,116.641,116.641   s116.641-52.217,116.641-116.641v-94.601c0-6.442,5.425-11.868,11.868-11.868s11.868,5.425,11.868,11.868v94.601   C395.02,335.343,331.952,398.411,254.644,398.411z" data-original="#F1F3F7" class=""/>
	<rect x="161.738" y="455.375" style="fill:#F1F3F7;" width="185.812" height="23.735" data-original="#F1F3F7" class=""/>
</g><g>
	<path style="fill:#414753" d="M214.633,118.675h-52.217v29.16h52.217c8.138,0,14.58-6.442,14.58-14.58   C229.213,125.118,222.771,118.675,214.633,118.675z" data-original="#414753" class=""/>
	<path style="fill:#414753" d="M214.633,167.163h-52.217v29.16h52.217c8.138,0,14.58-6.442,14.58-14.58   C229.213,173.605,222.771,167.163,214.633,167.163z" data-original="#414753" class=""/>
	<path style="fill:#414753" d="M214.633,215.65h-52.217v29.16h52.217c8.138,0,14.58-6.442,14.58-14.58   C229.213,222.093,222.771,215.65,214.633,215.65z" data-original="#414753" class=""/>
	<path style="fill:#414753" d="M294.654,244.811h52.217v-29.16h-52.217c-8.138,0-14.58,6.442-14.58,14.58   C280.074,238.029,286.517,244.811,294.654,244.811z" data-original="#414753" class=""/>
	<path style="fill:#414753" d="M294.654,196.323h52.217v-29.16h-52.217c-8.138,0-14.58,6.442-14.58,14.58   C280.074,189.881,286.517,196.323,294.654,196.323z" data-original="#414753" class=""/>
	<path style="fill:#414753" d="M294.654,147.836h52.217v-29.16h-52.217c-8.138,0-14.58,6.442-14.58,14.58   S286.517,147.836,294.654,147.836z" data-original="#414753" class=""/>
</g></g> </svg>
