<?xml version="1.0"?>
<svg xmlns="http://www.w3.org/2000/svg" height="512px" viewBox="-19 0 511 511.98906" width="512px" class=""><g><path d="m444.367188 366.488281-271.339844 52.714844-52.542969-270.460937 271.339844-52.714844c19.492187-3.785156 38.367187 8.949218 42.15625 28.441406l38.828125 199.863281c3.789062 19.496094-8.945313 38.371094-28.441406 42.15625zm0 0" fill="#eab9a4" data-original="#EAB9A4" class=""/><path d="m173.027344 419.203125 111.222656-21.609375c-11.730469-54.371094-39.527344-183.015625-47.265625-217.246094-9.890625-43.753906 17.609375-57.660156 17.609375-57.660156l-134.109375 26.054688zm0 0" fill="#dd9f80" data-original="#DD9F80" class=""/><path d="m419.558594 429.503906-240.488282 46.722656-10.894531-56.078124 240.488281-46.722657c15.484376-3.007812 30.476563 7.105469 33.484376 22.589844 3.007812 15.488281-7.105469 30.480469-22.589844 33.488281zm0 0" fill="#d8d7da" data-original="#D8D7DA" class="" style="fill:#4A4A4A" data-old_color="#4a4a4a"/><path d="m179.035156 444.484375c-14.90625 2.894531-29.339844-6.839844-32.234375-21.75l-64.214843-330.519531-68.710938-41.121094c-13.03125-7.800781-17.273438-24.683594-9.472656-37.714844 7.796875-13.027344 24.683594-17.273437 37.710937-9.472656l79.242188 47.425781c6.703125 4.011719 11.382812 10.683594 12.871093 18.351563l66.554688 342.566406c2.894531 14.90625-6.839844 29.335938-21.746094 32.234375zm0 0" fill="#d8d7da" data-original="#D8D7DA" class="" style="fill:#4A4A4A" data-old_color="#4a4a4a"/><path d="m121.359375 51.332031-79.246094-47.425781c-13.027343-7.800781-29.914062-3.554688-37.710937 9.472656-7.796875 13.03125-3.554688 29.917969 9.472656 37.714844l68.710938 41.125zm0 0" fill="#ff929f" data-original="#FF929F" class="" style="fill:#FF7675" data-old_color="#FF929F"/><path d="m240.179688 451.019531c0 33.671875-27.296876 60.96875-60.972657 60.96875-33.671875 0-60.96875-27.296875-60.96875-60.96875 0-33.675781 27.296875-60.972656 60.96875-60.972656 33.675781 0 60.972657 27.296875 60.972657 60.972656zm0 0" fill="#acabb1" data-original="#ACABB1" class="" style="fill:#ACABB1"/><path d="m396.96875 282.808594-27.566406 5.355468c-12.339844 2.398438-24.289063-5.660156-26.683594-18l-17.296875-89.039062c-2.398437-12.339844 5.660156-24.285156 18-26.683594l27.566406-5.355468c12.339844-2.398438 24.289063 5.660156 26.683594 18l17.300781 89.039062c2.394532 12.339844-5.664062 24.289062-18.003906 26.683594zm0 0" fill="#ccf8ff" data-original="#CCF8FF" class="active-path" style="fill:#CCF8FF"/><path d="m290.792969 303.4375-25.511719 4.957031c-11.417969 2.21875-22.472656-5.242187-24.691406-16.660156l-4.957032-25.511719c-2.214843-11.417968 5.242188-22.472656 16.660157-24.691406l25.511719-4.957031c11.417968-2.21875 22.472656 5.238281 24.691406 16.660156l4.957031 25.511719c2.21875 11.417968-5.238281 22.472656-16.660156 24.691406zm0 0" fill="#abebf4" data-original="#ABEBF4" class=""/><path d="m250.539062 241.949219c-10.414062 2.957031-17.007812 13.464843-14.90625 24.285156l4.957032 25.511719c2.199218 11.316406 13.078125 18.730468 24.390625 16.703125-4.90625-22.652344-9.9375-45.839844-14.441407-66.5zm0 0" fill="#8ed7e8" data-original="#8ED7E8"/><path d="m209.285156 451.019531c0 16.609375-13.464844 30.074219-30.078125 30.074219-16.609375 0-30.074219-13.464844-30.074219-30.074219 0-16.613281 13.464844-30.078125 30.074219-30.078125 16.613281 0 30.078125 13.464844 30.078125 30.078125zm0 0" fill="#898890" data-original="#898890" class=""/></g> </svg>
